<svg id="visual" viewBox="0 0 960 540" width="960" height="540" xmlns="http://www.w3.org/2000/svg" xmlns:xlink="http://www.w3.org/1999/xlink" version="1.1"><rect x="0" y="0" width="960" height="540" fill="#ebecf0"></rect><g transform="translate(474.89865003589244 241.55020358835338)"><path d="M99.8 -148.7C121.2 -121.8 124.8 -81.7 141.3 -43C157.9 -4.3 187.4 33.1 190 73.1C192.6 113 168.3 155.6 132.1 187.7C96 219.8 48 241.4 -2.4 244.8C-52.9 248.1 -105.8 233.3 -135.9 199.2C-166 165.2 -173.4 112 -177.4 65.7C-181.3 19.4 -182 -20 -170.8 -55.8C-159.5 -91.6 -136.5 -123.9 -106.1 -147.8C-75.6 -171.8 -37.8 -187.4 0.7 -188.3C39.2 -189.3 78.4 -175.5 99.8 -148.7" fill="#001220"></path></g></svg>