<svg id="visual" viewBox="0 0 960 540" width="960" height="540" xmlns="http://www.w3.org/2000/svg" xmlns:xlink="http://www.w3.org/1999/xlink" version="1.1"><rect x="0" y="0" width="960" height="540" fill="#001220"></rect><defs><linearGradient id="grad1_0" x1="43.8%" y1="0%" x2="100%" y2="100%"><stop offset="14.444444444444446%" stop-color="#715df2" stop-opacity="1"></stop><stop offset="85.55555555555554%" stop-color="#715df2" stop-opacity="1"></stop></linearGradient></defs><defs><linearGradient id="grad1_1" x1="43.8%" y1="0%" x2="100%" y2="100%"><stop offset="14.444444444444446%" stop-color="#715df2" stop-opacity="1"></stop><stop offset="85.55555555555554%" stop-color="#4056d1" stop-opacity="1"></stop></linearGradient></defs><defs><linearGradient id="grad1_2" x1="43.8%" y1="0%" x2="100%" y2="100%"><stop offset="14.444444444444446%" stop-color="#004cae" stop-opacity="1"></stop><stop offset="85.55555555555554%" stop-color="#4056d1" stop-opacity="1"></stop></linearGradient></defs><defs><linearGradient id="grad1_3" x1="43.8%" y1="0%" x2="100%" y2="100%"><stop offset="14.444444444444446%" stop-color="#004cae" stop-opacity="1"></stop><stop offset="85.55555555555554%" stop-color="#003f8a" stop-opacity="1"></stop></linearGradient></defs><defs><linearGradient id="grad1_4" x1="43.8%" y1="0%" x2="100%" y2="100%"><stop offset="14.444444444444446%" stop-color="#003165" stop-opacity="1"></stop><stop offset="85.55555555555554%" stop-color="#003f8a" stop-opacity="1"></stop></linearGradient></defs><defs><linearGradient id="grad1_5" x1="43.8%" y1="0%" x2="100%" y2="100%"><stop offset="14.444444444444446%" stop-color="#003165" stop-opacity="1"></stop><stop offset="85.55555555555554%" stop-color="#002241" stop-opacity="1"></stop></linearGradient></defs><defs><linearGradient id="grad1_6" x1="43.8%" y1="0%" x2="100%" y2="100%"><stop offset="14.444444444444446%" stop-color="#001220" stop-opacity="1"></stop><stop offset="85.55555555555554%" stop-color="#002241" stop-opacity="1"></stop></linearGradient></defs><defs><linearGradient id="grad2_0" x1="0%" y1="0%" x2="56.3%" y2="100%"><stop offset="14.444444444444446%" stop-color="#715df2" stop-opacity="1"></stop><stop offset="85.55555555555554%" stop-color="#715df2" stop-opacity="1"></stop></linearGradient></defs><defs><linearGradient id="grad2_1" x1="0%" y1="0%" x2="56.3%" y2="100%"><stop offset="14.444444444444446%" stop-color="#4056d1" stop-opacity="1"></stop><stop offset="85.55555555555554%" stop-color="#715df2" stop-opacity="1"></stop></linearGradient></defs><defs><linearGradient id="grad2_2" x1="0%" y1="0%" x2="56.3%" y2="100%"><stop offset="14.444444444444446%" stop-color="#4056d1" stop-opacity="1"></stop><stop offset="85.55555555555554%" stop-color="#004cae" stop-opacity="1"></stop></linearGradient></defs><defs><linearGradient id="grad2_3" x1="0%" y1="0%" x2="56.3%" y2="100%"><stop offset="14.444444444444446%" stop-color="#003f8a" stop-opacity="1"></stop><stop offset="85.55555555555554%" stop-color="#004cae" stop-opacity="1"></stop></linearGradient></defs><defs><linearGradient id="grad2_4" x1="0%" y1="0%" x2="56.3%" y2="100%"><stop offset="14.444444444444446%" stop-color="#003f8a" stop-opacity="1"></stop><stop offset="85.55555555555554%" stop-color="#003165" stop-opacity="1"></stop></linearGradient></defs><defs><linearGradient id="grad2_5" x1="0%" y1="0%" x2="56.3%" y2="100%"><stop offset="14.444444444444446%" stop-color="#002241" stop-opacity="1"></stop><stop offset="85.55555555555554%" stop-color="#003165" stop-opacity="1"></stop></linearGradient></defs><defs><linearGradient id="grad2_6" x1="0%" y1="0%" x2="56.3%" y2="100%"><stop offset="14.444444444444446%" stop-color="#002241" stop-opacity="1"></stop><stop offset="85.55555555555554%" stop-color="#001220" stop-opacity="1"></stop></linearGradient></defs><g transform="translate(960, 0)"><path d="M0 486C-66.2 483 -132.5 480 -186 449C-239.5 418 -280.3 359 -304.8 304.8C-329.3 250.6 -337.4 201.2 -364.9 151.2C-392.4 101.2 -439.2 50.6 -486 0L0 0Z" fill="#001a30"></path><path d="M0 416.6C-56.8 414 -113.5 411.4 -159.4 384.9C-205.3 358.3 -240.2 307.7 -261.2 261.2C-282.2 214.8 -289.2 172.4 -312.8 129.6C-336.4 86.7 -376.5 43.4 -416.6 0L0 0Z" fill="#002a53"></path><path d="M0 347.1C-47.3 345 -94.6 342.9 -132.8 320.7C-171.1 298.6 -200.2 256.4 -217.7 217.7C-235.2 179 -241 143.7 -260.7 108C-280.3 72.3 -313.7 36.1 -347.1 0L0 0Z" fill="#003877"></path><path d="M0 277.7C-37.8 276 -75.7 274.3 -106.3 256.6C-136.9 238.9 -160.2 205.1 -174.2 174.2C-188.1 143.2 -192.8 114.9 -208.5 86.4C-224.2 57.8 -251 28.9 -277.7 0L0 0Z" fill="#00469c"></path><path d="M0 208.3C-28.4 207 -56.8 205.7 -79.7 192.4C-102.6 179.1 -120.1 153.8 -130.6 130.6C-141.1 107.4 -144.6 86.2 -156.4 64.8C-168.2 43.4 -188.2 21.7 -208.3 0L0 0Z" fill="#2651c0"></path><path d="M0 138.9C-18.9 138 -37.8 137.1 -53.1 128.3C-68.4 119.4 -80.1 102.6 -87.1 87.1C-94.1 71.6 -96.4 57.5 -104.3 43.2C-112.1 28.9 -125.5 14.5 -138.9 0L0 0Z" fill="#585ae2"></path><path d="M0 69.4C-9.5 69 -18.9 68.6 -26.6 64.1C-34.2 59.7 -40 51.3 -43.5 43.5C-47 35.8 -48.2 28.7 -52.1 21.6C-56.1 14.5 -62.7 7.2 -69.4 0L0 0Z" fill="#715df2"></path></g><g transform="translate(0, 540)"><path d="M0 -486C62.2 -475.6 124.4 -465.3 183.7 -443.5C242.9 -421.7 299.2 -388.4 343.7 -343.7C388.1 -298.9 420.8 -242.5 442.5 -183.3C464.3 -124.1 475.1 -62.1 486 0L0 0Z" fill="#001a30"></path><path d="M0 -416.6C53.3 -407.7 106.7 -398.8 157.4 -380.1C208.2 -361.4 256.4 -333 294.6 -294.6C332.7 -256.2 360.7 -207.9 379.3 -157.1C398 -106.4 407.3 -53.2 416.6 0L0 0Z" fill="#002a53"></path><path d="M0 -347.1C44.4 -339.7 88.9 -332.3 131.2 -316.8C173.5 -301.2 213.7 -277.5 245.5 -245.5C277.2 -213.5 300.6 -173.2 316.1 -130.9C331.6 -88.6 339.4 -44.3 347.1 0L0 0Z" fill="#003877"></path><path d="M0 -277.7C35.6 -271.8 71.1 -265.9 105 -253.4C138.8 -241 171 -222 196.4 -196.4C221.8 -170.8 240.4 -138.6 252.9 -104.7C265.3 -70.9 271.5 -35.5 277.7 0L0 0Z" fill="#00469c"></path><path d="M0 -208.3C26.7 -203.8 53.3 -199.4 78.7 -190.1C104.1 -180.7 128.2 -166.5 147.3 -147.3C166.3 -128.1 180.3 -103.9 189.7 -78.6C199 -53.2 203.6 -26.6 208.3 0L0 0Z" fill="#2651c0"></path><path d="M0 -138.9C17.8 -135.9 35.6 -132.9 52.5 -126.7C69.4 -120.5 85.5 -111 98.2 -98.2C110.9 -85.4 120.2 -69.3 126.4 -52.4C132.7 -35.5 135.8 -17.7 138.9 0L0 0Z" fill="#585ae2"></path><path d="M0 -69.4C8.9 -67.9 17.8 -66.5 26.2 -63.4C34.7 -60.2 42.7 -55.5 49.1 -49.1C55.4 -42.7 60.1 -34.6 63.2 -26.2C66.3 -17.7 67.9 -8.9 69.4 0L0 0Z" fill="#715df2"></path></g></svg>